<?xml version="1.0" standalone="no"?>
<!DOCTYPE svg PUBLIC "-//W3C//DTD SVG 20010904//EN"
 "http://www.w3.org/TR/2001/REC-SVG-20010904/DTD/svg10.dtd">
<svg version="1.0" xmlns="http://www.w3.org/2000/svg"
 width="40pt" height="40pt" viewBox="0 0 433.000000 432.000000"
 preserveAspectRatio="xMidYMid meet">
<metadata>
Created by potrace 1.15, written by Peter Selinger 2001-2017
</metadata>
<g transform="translate(0.000000,432.000000) scale(0.100000,-0.100000)"
fill="#ffff" stroke="none">
<path d="M1970 4012 c-270 -134 -550 -231 -821 -286 -158 -31 -316 -56 -352
-56 -37 0 -80 -23 -101 -54 -14 -22 -16 -66 -16 -357 0 -361 12 -531 56 -769
113 -611 379 -1121 801 -1530 169 -164 269 -240 315 -240 64 0 73 20 170 367
49 175 119 424 155 553 94 337 90 316 67 348 -11 15 -36 34 -55 43 -37 18 -28
19 -333 -20 -92 -12 -174 -20 -182 -17 -26 10 -14 52 50 187 73 153 75 158
356 759 114 245 258 552 319 682 61 131 111 249 111 262 0 13 -8 33 -17 44
-20 22 -310 172 -333 172 -8 0 -94 -40 -190 -88z m340 -176 c0 -2 -24 -54 -54
-117 -70 -149 -649 -1384 -691 -1474 -18 -38 -58 -123 -89 -189 -33 -69 -56
-132 -56 -151 0 -37 39 -91 76 -105 15 -6 117 3 291 24 147 19 268 33 269 32
1 0 -18 -68 -41 -151 -23 -82 -77 -279 -120 -438 -43 -158 -82 -292 -86 -298
-13 -22 -50 4 -161 114 -462 459 -721 1038 -778 1737 -6 74 -12 257 -13 407
l-2 272 50 6 c120 16 403 77 547 119 199 58 373 126 558 218 l145 73 78 -38
c42 -20 77 -39 77 -41z"/>
<path d="M2669 3525 c-15 -8 -34 -29 -42 -48 -15 -30 -327 -1121 -342 -1194
-7 -36 14 -87 44 -103 33 -17 104 -11 289 25 195 39 224 37 242 -10 10 -25 17
-8 -237 -535 -210 -433 -596 -1249 -604 -1275 -13 -43 6 -89 54 -130 51 -44
82 -45 173 -4 164 74 408 262 599 460 190 198 332 397 463 649 159 305 251
622 301 1025 23 183 45 643 39 801 -4 104 -4 107 -35 134 -26 24 -44 29 -134
39 -192 22 -472 85 -702 157 -43 13 -79 24 -80 24 -1 -1 -14 -7 -28 -15z m142
-201 c83 -29 361 -94 498 -115 75 -12 142 -23 149 -25 24 -7 10 -485 -23 -779
-55 -483 -188 -859 -436 -1233 -176 -264 -410 -501 -674 -681 -49 -34 -91 -58
-93 -53 -1 5 100 223 226 483 126 261 331 689 456 951 224 470 228 478 216
513 -13 40 -59 75 -99 75 -13 0 -138 -22 -278 -50 -140 -27 -257 -50 -261 -50
-5 0 55 221 131 490 77 270 141 490 142 490 1 0 22 -7 46 -16z"/>
</g>
</svg>
